<svg width="1200" height="630" viewBox="0 0 1200 630" fill="none" xmlns="http://www.w3.org/2000/svg">
  <!-- Background Gradient -->
  <defs>
    <linearGradient id="bgGradient" x1="0%" y1="0%" x2="100%" y2="100%">
      <stop offset="0%" style="stop-color:#667eea;stop-opacity:1" />
      <stop offset="50%" style="stop-color:#764ba2;stop-opacity:1" />
      <stop offset="100%" style="stop-color:#f093fb;stop-opacity:1" />
    </linearGradient>
    <linearGradient id="textGradient" x1="0%" y1="0%" x2="100%" y2="0%">
      <stop offset="0%" style="stop-color:#ffd93d;stop-opacity:1" />
      <stop offset="100%" style="stop-color:#ff6b6b;stop-opacity:1" />
    </linearGradient>
    <filter id="glow">
      <feGaussianBlur stdDeviation="3" result="coloredBlur"/>
      <feMerge> 
        <feMergeNode in="coloredBlur"/>
        <feMergeNode in="SourceGraphic"/>
      </feMerge>
    </filter>
  </defs>
  
  <!-- Background -->
  <rect width="1200" height="630" fill="url(#bgGradient)"/>
  
  <!-- Floating Elements -->
  <circle cx="100" cy="100" r="30" fill="rgba(255,255,255,0.1)" opacity="0.6"/>
  <circle cx="1100" cy="150" r="40" fill="rgba(255,255,255,0.1)" opacity="0.4"/>
  <circle cx="150" cy="500" r="25" fill="rgba(255,255,255,0.1)" opacity="0.5"/>
  <circle cx="1050" cy="480" r="35" fill="rgba(255,255,255,0.1)" opacity="0.3"/>
  
  <!-- AI Robot Icon -->
  <g transform="translate(100, 200)">
    <rect x="0" y="0" width="80" height="80" rx="20" fill="rgba(255,255,255,0.2)" stroke="white" stroke-width="2"/>
    <circle cx="25" cy="30" r="8" fill="white"/>
    <circle cx="55" cy="30" r="8" fill="white"/>
    <rect x="20" y="50" width="40" height="4" rx="2" fill="white"/>
    <rect x="30" y="60" width="20" height="4" rx="2" fill="white"/>
  </g>
  
  <!-- Main Title -->
  <text x="220" y="280" font-family="Inter, sans-serif" font-size="72" font-weight="800" fill="white" filter="url(#glow)">
    AI Tools Hub
  </text>
  
  <!-- Subtitle -->
  <text x="220" y="330" font-family="Inter, sans-serif" font-size="32" font-weight="500" fill="rgba(255,255,255,0.9)">
    Professional AI Tools Directory
  </text>
  
  <!-- Description -->
  <text x="220" y="380" font-family="Inter, sans-serif" font-size="24" font-weight="400" fill="rgba(255,255,255,0.8)">
    Discover the best AI tools for professionals
  </text>
  
  <!-- Stats -->
  <g transform="translate(220, 420)">
    <rect x="0" y="0" width="200" height="80" rx="15" fill="rgba(255,255,255,0.15)" stroke="rgba(255,255,255,0.3)" stroke-width="1"/>
    <text x="100" y="35" font-family="Inter, sans-serif" font-size="28" font-weight="700" fill="url(#textGradient)" text-anchor="middle">100+</text>
    <text x="100" y="55" font-family="Inter, sans-serif" font-size="16" font-weight="500" fill="rgba(255,255,255,0.8)" text-anchor="middle">AI Tools</text>
  </g>
  
  <g transform="translate(440, 420)">
    <rect x="0" y="0" width="150" height="80" rx="15" fill="rgba(255,255,255,0.15)" stroke="rgba(255,255,255,0.3)" stroke-width="1"/>
    <text x="75" y="35" font-family="Inter, sans-serif" font-size="28" font-weight="700" fill="url(#textGradient)" text-anchor="middle">10+</text>
    <text x="75" y="55" font-family="Inter, sans-serif" font-size="16" font-weight="500" fill="rgba(255,255,255,0.8)" text-anchor="middle">Categories</text>
  </g>
  
  <g transform="translate(610, 420)">
    <rect x="0" y="0" width="180" height="80" rx="15" fill="rgba(255,255,255,0.15)" stroke="rgba(255,255,255,0.3)" stroke-width="1"/>
    <text x="90" y="35" font-family="Inter, sans-serif" font-size="28" font-weight="700" fill="url(#textGradient)" text-anchor="middle">Open Source</text>
    <text x="90" y="55" font-family="Inter, sans-serif" font-size="16" font-weight="500" fill="rgba(255,255,255,0.8)" text-anchor="middle">Community Driven</text>
  </g>
  
  <!-- Decorative Elements -->
  <g transform="translate(900, 150)">
    <!-- Gear Icon -->
    <circle cx="50" cy="50" r="40" fill="none" stroke="rgba(255,255,255,0.3)" stroke-width="3"/>
    <circle cx="50" cy="50" r="20" fill="rgba(255,255,255,0.2)"/>
    <rect x="45" y="10" width="10" height="20" fill="rgba(255,255,255,0.3)"/>
    <rect x="45" y="80" width="10" height="20" fill="rgba(255,255,255,0.3)"/>
    <rect x="10" y="45" width="20" height="10" fill="rgba(255,255,255,0.3)"/>
    <rect x="80" y="45" width="20" height="10" fill="rgba(255,255,255,0.3)"/>
  </g>
  
  <!-- Tech Icons -->
  <g transform="translate(950, 350)">
    <rect x="0" y="0" width="60" height="60" rx="15" fill="rgba(255,255,255,0.2)"/>
    <text x="30" y="40" font-family="Arial, sans-serif" font-size="30" fill="white" text-anchor="middle">🤖</text>
  </g>
  
  <g transform="translate(1020, 280)">
    <rect x="0" y="0" width="50" height="50" rx="12" fill="rgba(255,255,255,0.2)"/>
    <text x="25" y="35" font-family="Arial, sans-serif" font-size="25" fill="white" text-anchor="middle">✨</text>
  </g>
  
  <g transform="translate(880, 400)">
    <rect x="0" y="0" width="55" height="55" rx="12" fill="rgba(255,255,255,0.2)"/>
    <text x="27" y="37" font-family="Arial, sans-serif" font-size="27" fill="white" text-anchor="middle">🚀</text>
  </g>
</svg>